PathFileType	4	(X/Y/Z)	C:/Users/opensim2020/Desktop/walking_exp_matlab/subject03_walking14_straight_04.trc																																																																																																																																											
DataRate	CameraRate	NumFrames	NumMarkers	Units	OrigDataRate	OrigDataStartFrame	OrigNumFrames																																																																																																																																							
100	100	4	47	mm	100	2222	177																																																																																																																																							
Frame#	Time	LFHD			RFHD			LBHD			RBHD			C7			T10			CLAV			STRN			RBAK			LSHO			LUPA			LELB			LFRM			LWRA			LWRB			LFIN			RSHO			RUPA			RELB			RFRM			RWRA			RWRB			RFIN			LASI			RASI			LPSI			RPSI			LTHI			LKNE			LTIB			LANK			LHEE			LTOE			RTHI			RKNE			RTIB			RANK			RHEE			RTOE			*39			*40			*41			*42			*43			*44			*45			*46		
		X1	Y1	Z1	X2	Y2	Z2	X3	Y3	Z3	X4	Y4	Z4	X5	Y5	Z5	X6	Y6	Z6	X7	Y7	Z7	X8	Y8	Z8	X9	Y9	Z9	X10	Y10	Z10	X11	Y11	Z11	X12	Y12	Z12	X13	Y13	Z13	X14	Y14	Z14	X15	Y15	Z15	X16	Y16	Z16	X17	Y17	Z17	X18	Y18	Z18	X19	Y19	Z19	X20	Y20	Z20	X21	Y21	Z21	X22	Y22	Z22	X23	Y23	Z23	X24	Y24	Z24	X25	Y25	Z25	X26	Y26	Z26	X27	Y27	Z27	X28	Y28	Z28	X29	Y29	Z29	X30	Y30	Z30	X31	Y31	Z31	X32	Y32	Z32	X33	Y33	Z33	X34	Y34	Z34	X35	Y35	Z35	X36	Y36	Z36	X37	Y37	Z37	X38	Y38	Z38	X39	Y39	Z39	X40	Y40	Z40	X41	Y41	Z41	X42	Y42	Z42	X43	Y43	Z43	X44	Y44	Z44	X45	Y45	Z45	X46	Y46	Z46	X47	Y47	Z47
																																																																																																																																														
45	0.44	-461.86172	1599.59985	921.38434	-467.72012	1601.85388	1054.11865	-589.25299	1554.13257	920.04156	-589.89789	1555.63647	1050.98059	-620.87878	1394.38123	976.95068	-648.58838	1079.8739	976.02875	-500.52313	1316.9248	978.14661	-453.70395	1153.24963	977.6297	-672.14838	1219.91016	1077.40173	-549.16907	1352.94055	821.224	-581.47455	1156.9187	748.9184	-592.17383	1035.19287	732.51929	-594.90314	905.21973	721.36456	-603.68774	783.1261	740.68085	-627.22217	798.77985	691.72052	-634.80139	714.10443	692.82611	-543.85529	1344.26331	1135.83972	-489.52426	1137.79028	1219.72876	-434.88831	1040.7052	1235.03979	-353.42734	931.79456	1228.90222	-282.83783	867.63428	1185.13306	-303.04498	845.46582	1229.49976	-245.65628	801.19019	1215.8479	-470.21942	918.46741	873.17383	-492.92612	921.42957	1109.97131	-636.70117	934.9035	903.0907	-649.08197	949.73718	1052.13245	-456.45511	621.11639	813.44904	-371.64755	469.25089	858.97339	-344.40521	279.45596	850.46631	-280.56418	76.77847	880.5835	-305.40674	28.77296	919.35052	-128.31882	88.17527	898.72089	-600.35364	636.1109	1145.69324	-632.99103	458.26965	1110.62927	-735.7489	293.40533	1114.30151	-833.29047	97.74178	1067.42188	-886.25189	79.13744	1018.94305	-704.81903	31.1159	1047.60742	NaN	NaN	NaN	-546.73871	1660.58569	969.3028	NaN	NaN	NaN	NaN	NaN	NaN	NaN	NaN	NaN	NaN	NaN	NaN	NaN	NaN	NaN	NaN	NaN	NaN
46	0.45	-447.95679	1598.35449	920.71857	-454.45422	1600.96326	1053.39734	-575.27386	1552.57434	918.87146	-576.5473	1554.52759	1049.8562	-607.27478	1393.09424	975.8877	-634.44531	1078.56763	974.75208	-486.74741	1315.79651	977.65698	-439.77298	1152.14648	977.26154	-659.00476	1218.36096	1075.52124	-534.56445	1352.12122	820.48413	-568.2757	1156.31665	748.0976	-580.63531	1034.75391	732.03326	-585.95325	904.93207	720.68671	-597.60565	782.88519	739.93146	-620.26129	799.15619	690.63086	-631.2652	714.48792	692.03406	-531.37183	1342.90466	1135.21558	-477.38135	1136.4895	1219.16052	-422.46698	1039.72937	1234.37488	-339.39203	932.07635	1227.53613	-267.63943	869.8739	1183.18188	-287.73776	846.89532	1227.07947	-228.95116	804.45703	1213.54224	-455.50058	917.93896	872.92554	-479.97101	920.05811	1110.06982	-622.30988	934.10864	902.24969	-635.24615	948.32196	1051.13379	-438.96207	622.04675	814.51782	-355.93588	470.19693	858.77393	-330.6691	278.54068	850.20172	-269.25598	75.05246	880.70648	-295.00403	27.14093	919.11169	-117.4668	85.47639	901.45325	-589.00708	635.30304	1145.54541	-622.47876	457.38672	1111.0166	-728.53564	294.39374	1114.84375	-830.85944	101.15878	1068.50623	-884.41406	83.95182	1020.16656	-704.4317	31.0409	1047.89807	NaN	NaN	NaN	-532.85773	1659.08411	967.72229	NaN	NaN	NaN	NaN	NaN	NaN	NaN	NaN	NaN	NaN	NaN	NaN	NaN	NaN	NaN	NaN	NaN	NaN
47	0.46	-434.09952	1597.20703	919.95239	-441.09415	1600.16565	1052.61536	-561.25403	1551.34497	917.68732	-563.04114	1553.56921	1048.52893	-593.55219	1391.91187	974.7196	-620.03174	1077.40015	973.71216	-472.86887	1314.89404	977.06732	-425.57242	1151.41724	976.73474	-645.62195	1216.76904	1073.47559	-519.88324	1351.39624	819.64484	-554.97949	1155.83606	747.25079	-568.77283	1034.4137	731.44257	-576.40424	904.48596	720.68347	-590.74005	782.78973	739.60486	-612.33496	799.53436	689.8067	-626.7677	715.00458	691.70258	-519.05182	1341.94763	1134.58325	-465.50653	1135.29358	1218.51404	-410.45538	1038.7594	1233.6543	-325.90186	932.49231	1225.94348	-253.07478	872.03979	1181.20789	-272.98383	848.09509	1224.67578	-213.12943	807.50592	1211.35718	-440.55063	917.83545	872.5351	-466.07047	918.66364	1109.63501	-607.67255	933.62408	901.67926	-620.99683	947.08429	1050.45691	-420.59375	623.51837	814.99188	-340.18469	471.04883	858.83191	-318.46063	277.10812	849.99786	-261.05539	72.62691	881.04211	-288.62	25.12131	918.55664	-109.7321	80.65315	905.23798	-577.02045	634.42126	1145.18518	-611.229	456.49908	1111.36816	-720.87195	295.5282	1115.39197	-828.0708	104.94271	1069.62195	-882.14124	89.29219	1021.40912	-704.06445	30.80568	1048.16357	NaN	NaN	NaN	-519.22882	1658.1499	966.56506	NaN	NaN	NaN	NaN	NaN	NaN	NaN	NaN	NaN	NaN	NaN	NaN	NaN	NaN	NaN	NaN	NaN	NaN
48	0.47	-420.01788	1596.172	919.11658	-427.66492	1599.53345	1051.73633	-547.20496	1550.33423	916.43085	-549.69244	1552.97302	1047.31982	-579.74603	1390.86523	973.4729	-605.39001	1076.26733	972.94757	-458.85492	1314.12012	976.41718	-411.0668	1150.83337	976.06732	-632.02283	1215.25269	1071.41589	-505.12643	1350.78369	818.68768	-541.46057	1155.43909	746.29327	-556.61444	1034.11707	730.71606	-566.23199	904.20874	720.35925	-583.01019	782.69806	739.54065	-603.32294	799.80078	689.24982	-621.2406	715.52625	691.78516	-506.60391	1341.0636	1133.85071	-453.85956	1134.23328	1217.86243	-398.7858	1037.83289	1232.78345	-313.18417	932.86053	1224.32874	-239.41074	873.91614	1179.30737	-258.98944	849.1947	1222.31995	-198.16644	810.32068	1209.14331	-425.33002	918.02924	871.93542	-451.68088	917.2561	1108.97046	-592.90161	933.27399	901.29193	-606.30548	946.01093	1049.86804	-401.59842	625.23584	815.09698	-324.14288	471.29929	858.96899	-307.64252	275.30911	849.98828	-255.65945	69.51241	882.06219	-285.47354	23.67108	918.6485	-105.01038	74.01141	909.50836	-564.40112	633.43811	1144.77832	-599.38318	455.56555	1111.61694	-712.62665	296.76245	1115.95117	-824.86279	109.09939	1070.61316	-879.38318	95.2261	1022.48187	-703.56152	30.77055	1048.4668	NaN	NaN	NaN	-505.59378	1657.53333	965.26691	NaN	NaN	NaN	NaN	NaN	NaN	NaN	NaN	NaN	NaN	NaN	NaN	NaN	NaN	NaN	NaN	NaN	NaN
